<svg width="29" height="29" viewBox="0 0 29 29" fill="none" xmlns="http://www.w3.org/2000/svg">
<path d="M12.0001 2C10.0472 2 8.45813 3.58904 8.45813 5.542V6.61068H10.2902V5.542C10.2902 4.59911 11.0575 3.83205 12.0001 3.83205C12.943 3.83205 13.7104 4.59906 13.7104 5.542V6.61068H15.5424V5.542C15.5424 3.58904 13.9531 2 12.0001 2Z" fill="#165C7D"/>
<path d="M14.5038 24.3214C14.5038 25.6854 13.3942 26.795 12.0305 26.795H11.9694C10.6058 26.795 9.49612 25.6854 9.49612 24.3214H7.66406C7.66406 26.6958 9.59539 28.6271 11.9694 28.6271H12.0305C14.4045 28.6271 16.3359 26.6958 16.3359 24.3214H14.5038Z" fill="#165C7D"/>
<path d="M23.8544 23.9772L21.252 19.9287V14.732C21.252 9.57991 17.1014 5.38843 12 5.38843C6.89831 5.38843 2.74807 9.57991 2.74807 14.732V19.9287L0.145629 23.9769C-0.0357612 24.2587 -0.0485542 24.6173 0.112035 24.9113C0.272623 25.2053 0.580748 25.3885 0.916018 25.3885H23.0841C23.4193 25.3885 23.7274 25.2053 23.8877 24.9116C24.0486 24.6176 24.0358 24.2591 23.8544 23.9772ZM2.59383 23.5565L4.43446 20.693C4.52942 20.5455 4.58012 20.3733 4.58012 20.1977V14.732C4.58012 10.5903 7.9087 7.22053 12 7.22053C16.0917 7.22053 19.4199 10.5903 19.4199 14.732V20.1977C19.4199 20.3733 19.4703 20.5452 19.5653 20.693L21.4059 23.5565H2.59383Z" fill="#165C7D"/>
</svg>
