<svg width="109" height="32" viewBox="0 0 109 32" fill="none" xmlns="http://www.w3.org/2000/svg">
<rect x="0.5" y="0.5" width="108" height="31" rx="14.5" fill="white" stroke="#165C7D"/>
<path d="M24.1711 20.6954C23.8033 21.86 23.1904 22.3197 22.3017 22.3197C21.413 22.3197 20.8307 21.8906 20.4323 20.6954L17 10.1227H19.6049L22.3323 19.439L25.0905 10.1227H27.6034L24.1711 20.6954Z" fill="#165C7D"/>
<path d="M29.1972 10.1227H31.6489V22.1971H29.1972V10.1227Z" fill="#165C7D"/>
<path d="M33.2112 22.2273L36.7968 11.7158C37.1952 10.5206 37.8387 10.0303 38.7888 10.0303C39.6775 10.0303 40.3823 10.5512 40.7501 11.7158L44.2743 22.2273H41.6694L40.7501 19.224H36.6436L35.7548 22.2273H33.2112ZM40.1678 17.3546L38.6662 12.4819L37.1952 17.3546H40.1678Z" fill="#165C7D"/>
<path d="M53.2845 21.9821C52.4877 22.1966 51.3845 22.3498 50.128 22.3498C46.1134 22.3498 45.1328 20.4804 45.1328 16.1901C45.1328 11.8997 46.1134 10.0303 50.128 10.0303C51.3845 10.0303 52.4877 10.1835 53.2845 10.398L53.07 12.2981C52.2732 12.1755 51.4458 12.0835 50.5877 12.0835C47.6763 12.0835 47.6457 13.8303 47.6457 16.1901C47.6457 18.5804 47.6763 20.2966 50.5877 20.2966C51.4458 20.2966 52.3038 20.2353 53.07 20.0821L53.2845 21.9821Z" fill="#165C7D"/>
<path d="M57.4523 22.2276H55.0006V10.3371C56.0426 10.1532 57.4829 10 58.9233 10C61.5894 10 63.7653 10.521 63.7653 13.8001C63.7653 15.9453 62.8765 16.9566 61.4362 17.3856L64.1943 22.2276H61.3749L58.8926 17.6614C58.4023 17.6614 57.8507 17.6308 57.4216 17.6001V22.2276H57.4523ZM57.4523 15.6694C57.9426 15.7307 58.4329 15.7307 58.9539 15.7307C60.4862 15.7307 61.3749 15.3323 61.3749 13.8001C61.3749 12.4517 60.762 11.9307 59.0152 11.9307C58.5249 11.9307 57.9732 11.9613 57.4829 12.0226V15.6694H57.4523Z" fill="#165C7D"/>
<path d="M73.2041 12.0828H69.8637C68.4234 12.0828 68.1782 12.3892 68.1782 13.707V15.0861H72.9896V17.0474H68.1782V18.6103C68.1782 19.9587 68.4234 20.2652 69.8637 20.2652H73.2041V22.1652C72.346 22.1959 70.7218 22.2571 69.925 22.2571C67.7492 22.2571 65.7266 22.1346 65.7266 19.3152V13.0328C65.7266 10.2134 67.7492 10.0908 69.925 10.0908C70.8137 10.0908 72.3767 10.1521 73.2041 10.1828V12.0828Z" fill="#165C7D"/>
<path d="M75.4415 10.3674C76.4834 10.1835 77.9544 10.0303 79.3641 10.0303C83.8997 10.0303 84.6965 12.0835 84.6965 16.1901C84.6965 20.2966 83.8997 22.3498 79.3641 22.3498C77.9238 22.3498 76.4528 22.1966 75.4415 22.0127V10.3674ZM77.8931 12.1142V20.2659C78.1996 20.3272 78.598 20.3579 79.027 20.3579C82.2142 20.3579 82.2448 18.5498 82.2448 16.1901C82.2448 13.8303 82.2142 12.0222 79.027 12.0222C78.598 12.0222 78.2302 12.0529 77.8931 12.1142Z" fill="#165C7D"/>
<path d="M86.8414 10.1227H89.2931V22.1971H86.8414V10.1227Z" fill="#165C7D"/>
</svg>
