<svg width="27" height="25" viewBox="0 0 27 25" fill="none" xmlns="http://www.w3.org/2000/svg">
<path d="M19.4218 15.7233H18.238L17.8185 15.3373C19.2869 13.7078 20.171 11.5923 20.171 9.29102C20.171 4.15952 15.8105 0 10.4311 0C5.05165 0 0.691162 4.15952 0.691162 9.29102C0.691162 14.4225 5.05165 18.582 10.4311 18.582C12.8436 18.582 15.0613 17.7387 16.7695 16.3379L17.1741 16.7381V17.8674L24.6664 25L26.8991 22.8702L19.4218 15.7233ZM10.4311 15.7233C6.69995 15.7233 3.68806 12.8502 3.68806 9.29102C3.68806 5.73185 6.69995 2.85878 10.4311 2.85878C14.1622 2.85878 17.1741 5.73185 17.1741 9.29102C17.1741 12.8502 14.1622 15.7233 10.4311 15.7233Z" fill="white"/>
</svg>
